HIERARCHY
ROOT Hips
{
	OFFSET 0.000000 87.230942 0.000000
	CHANNELS 6 Xposition Yposition Zposition Xrotation Yrotation Zrotation
	JOINT Pelvis
	{
		OFFSET 0.000000 0.000000 0.000000
		CHANNELS 3 Xrotation Yrotation Zrotation
		JOINT LeftUpLeg
		{
			OFFSET 12.017000 -9.376404 -2.439400
			CHANNELS 3 Xrotation Yrotation Zrotation
			JOINT LeftLeg
			{
				OFFSET -0.007312 -32.846973 2.110600
				CHANNELS 3 Xrotation Yrotation Zrotation
				JOINT LeftFoot
				{
					OFFSET 0.007312 -32.065170 -0.570400
					CHANNELS 3 Xrotation Yrotation Zrotation
					JOINT LeftToeBase
					{
						OFFSET 0.728300 -11.045900 13.180700
						CHANNELS 3 Xrotation Yrotation Zrotation
						End Site
						{
							OFFSET 0.000000 17.212589 0.000000
						}
					}
				}
				JOINT LeftPantLeg
				{
					OFFSET 0.002788 -16.709013 -3.143600
					CHANNELS 3 Xrotation Yrotation Zrotation
					End Site
					{
						OFFSET -0.605125 24.528742 0.000000
					}
				}
			}
			JOINT Left_Butt
			{
				OFFSET -6.630234 1.326584 -3.183700
				CHANNELS 3 Xrotation Yrotation Zrotation
				End Site
				{
					OFFSET -0.498041 20.188049 0.000000
				}
			}
		}
		JOINT RightUpLeg
		{
			OFFSET -11.717000 -9.376404 -2.439400
			CHANNELS 3 Xrotation Yrotation Zrotation
			JOINT RightLeg
			{
				OFFSET -0.003241 -32.846912 2.110600
				CHANNELS 3 Xrotation Yrotation Zrotation
				JOINT RightFoot
				{
					OFFSET 0.003241 -32.065136 -0.570500
					CHANNELS 3 Xrotation Yrotation Zrotation
					JOINT RightToeBase
					{
						OFFSET -0.728300 -11.045901 13.180700
						CHANNELS 3 Xrotation Yrotation Zrotation
						End Site
						{
							OFFSET 0.000000 17.212593 0.000000
						}
					}
				}
				JOINT RightPantLeg
				{
					OFFSET 0.008142 -16.708982 -3.143700
					CHANNELS 3 Xrotation Yrotation Zrotation
					End Site
					{
						OFFSET 0.605088 24.528715 0.000000
					}
				}
			}
			JOINT Right_Butt
			{
				OFFSET 6.630732 1.326584 -3.183700
				CHANNELS 3 Xrotation Yrotation Zrotation
				End Site
				{
					OFFSET 0.498015 20.188240 0.000000
				}
			}
		}
	}
	JOINT Spine
	{
		OFFSET -0.062400 7.848404 3.918300
		CHANNELS 3 Xrotation Yrotation Zrotation
		JOINT Spine1
		{
			OFFSET -0.072800 11.422302 0.713400
			CHANNELS 3 Xrotation Yrotation Zrotation
			JOINT Spine2
			{
				OFFSET -0.083200 13.054001 -1.931600
				CHANNELS 3 Xrotation Yrotation Zrotation
				JOINT Neck
				{
					OFFSET -0.092200 14.121796 -5.138800
					CHANNELS 3 Xrotation Yrotation Zrotation
					JOINT Head
					{
						OFFSET 0.000200 10.447403 -0.842000
						CHANNELS 3 Xrotation Yrotation Zrotation
						JOINT Visor
						{
							OFFSET 0.457100 25.671204 16.550400
							CHANNELS 3 Xrotation Yrotation Zrotation
							End Site
							{
								OFFSET 0.000000 26.061493 0.000000
							}
						}
						JOINT HairMidA
						{
							OFFSET 0.459400 31.585403 8.437400
							CHANNELS 3 Xrotation Yrotation Zrotation
							End Site
							{
								OFFSET 0.000000 26.061493 0.000000
							}
						}
						JOINT HairMidB
						{
							OFFSET 0.464000 33.309204 -8.389700
							CHANNELS 3 Xrotation Yrotation Zrotation
							End Site
							{
								OFFSET 0.000000 26.061493 0.000000
							}
						}
						JOINT HairMidC
						{
							OFFSET 0.466600 27.991196 -17.375099
							CHANNELS 3 Xrotation Yrotation Zrotation
							End Site
							{
								OFFSET 0.000000 26.061493 0.000000
							}
						}
						JOINT HairMidD
						{
							OFFSET 0.467700 17.888092 -21.169500
							CHANNELS 3 Xrotation Yrotation Zrotation
							End Site
							{
								OFFSET 0.000000 26.061493 0.000000
							}
						}
						JOINT HairMidE
						{
							OFFSET 5.325700 3.514603 -14.369699
							CHANNELS 3 Xrotation Yrotation Zrotation
							End Site
							{
								OFFSET 0.000000 26.061493 0.000000
							}
						}
						JOINT HairMidF
						{
							OFFSET -4.394100 3.514603 -14.372400
							CHANNELS 3 Xrotation Yrotation Zrotation
							End Site
							{
								OFFSET 0.000000 26.061493 0.000000
							}
						}
						JOINT HairLeftA
						{
							OFFSET 15.319900 25.746506 2.623300
							CHANNELS 3 Xrotation Yrotation Zrotation
							End Site
							{
								OFFSET 0.000000 26.061493 0.000000
							}
						}
						JOINT HairLeftB
						{
							OFFSET 12.619500 29.289398 -8.731499
							CHANNELS 3 Xrotation Yrotation Zrotation
							End Site
							{
								OFFSET 0.000000 26.061493 0.000000
							}
						}
						JOINT HairLeftC
						{
							OFFSET 15.714800 15.959900 2.909800
							CHANNELS 3 Xrotation Yrotation Zrotation
							End Site
							{
								OFFSET 0.000000 26.061493 0.000000
							}
						}
						JOINT HairLeftD
						{
							OFFSET 16.101700 18.437408 -7.553200
							CHANNELS 3 Xrotation Yrotation Zrotation
							End Site
							{
								OFFSET 0.000000 26.061493 0.000000
							}
						}
						JOINT HairLeftE
						{
							OFFSET 9.731900 17.915009 -18.316799
							CHANNELS 3 Xrotation Yrotation Zrotation
							End Site
							{
								OFFSET 0.000000 26.061493 0.000000
							}
						}
						JOINT HairLeftF
						{
							OFFSET 11.204300 4.953598 -9.668100
							CHANNELS 3 Xrotation Yrotation Zrotation
							End Site
							{
								OFFSET 0.000000 26.061493 0.000000
							}
						}
						JOINT HairRightA
						{
							OFFSET -14.397900 25.746307 2.615100
							CHANNELS 3 Xrotation Yrotation Zrotation
							End Site
							{
								OFFSET 0.000000 26.061493 0.000000
							}
						}
						JOINT HairRightB
						{
							OFFSET -11.691200 29.289200 -8.738199
							CHANNELS 3 Xrotation Yrotation Zrotation
							End Site
							{
								OFFSET 0.000000 26.061493 0.000000
							}
						}
						JOINT HairRightC
						{
							OFFSET -14.792900 15.959702 2.901400
							CHANNELS 3 Xrotation Yrotation Zrotation
							End Site
							{
								OFFSET 0.000000 26.061493 0.000000
							}
						}
						JOINT HairRightD
						{
							OFFSET -15.174000 18.437195 -7.561900
							CHANNELS 3 Xrotation Yrotation Zrotation
							End Site
							{
								OFFSET 0.000000 26.061493 0.000000
							}
						}
						JOINT HairRightE
						{
							OFFSET -8.798200 17.914902 -18.322001
							CHANNELS 3 Xrotation Yrotation Zrotation
							End Site
							{
								OFFSET 0.000000 26.061493 0.000000
							}
						}
						JOINT HairRightF
						{
							OFFSET -10.275200 4.953506 -9.674099
							CHANNELS 3 Xrotation Yrotation Zrotation
							End Site
							{
								OFFSET 0.000000 26.061493 0.000000
							}
						}
					}
				}
				JOINT LeftShoulder
				{
					OFFSET 5.133500 7.341202 -1.867600
					CHANNELS 3 Xrotation Yrotation Zrotation
					JOINT LeftArm
					{
						OFFSET 8.072663 0.936867 -2.176600
						CHANNELS 3 Xrotation Yrotation Zrotation
						JOINT LeftForeArm
						{
							OFFSET 31.271999 0.000000 0.000000
							CHANNELS 3 Xrotation Yrotation Zrotation
							JOINT LeftHand
							{
								OFFSET 31.771030 0.000000 0.000000
								CHANNELS 3 Xrotation Yrotation Zrotation
								JOINT LeftHandThumb1
								{
									OFFSET 2.886520 -2.557846 4.416638
									CHANNELS 3 Xrotation Yrotation Zrotation
									JOINT LeftHandThumb2
									{
										OFFSET 2.371025 -1.368912 1.368910
										CHANNELS 3 Xrotation Yrotation Zrotation
										JOINT LeftHandThumb3
										{
											OFFSET 2.243378 -1.295212 1.295213
											CHANNELS 3 Xrotation Yrotation Zrotation
											End Site
											{
												OFFSET -0.332611 2.876945 0.020016
											}
										}
									}
								}
								JOINT LeftHandIndex1
								{
									OFFSET 8.568985 -0.641945 3.119977
									CHANNELS 3 Xrotation Yrotation Zrotation
									JOINT LeftHandIndex2
									{
										OFFSET 3.348503 0.000000 0.000000
										CHANNELS 3 Xrotation Yrotation Zrotation
										JOINT LeftHandIndex3
										{
											OFFSET 3.314552 0.000000 0.000000
											CHANNELS 3 Xrotation Yrotation Zrotation
											End Site
											{
												OFFSET -1.032898 3.075485 0.678797
											}
										}
									}
								}
								JOINT LeftHandMiddle1
								{
									OFFSET 8.124603 0.000000 0.000000
									CHANNELS 3 Xrotation Yrotation Zrotation
									JOINT LeftHandMiddle2
									{
										OFFSET 4.166275 0.000000 0.000000
										CHANNELS 3 Xrotation Yrotation Zrotation
										JOINT LeftHandMiddle3
										{
											OFFSET 3.018135 0.000000 0.000000
											CHANNELS 3 Xrotation Yrotation Zrotation
											End Site
											{
												OFFSET -1.032700 2.767982 0.617226
											}
										}
									}
								}
								JOINT LeftHandRing1
								{
									OFFSET 8.571686 -0.031357 -2.884047
									CHANNELS 3 Xrotation Yrotation Zrotation
									JOINT LeftHandRing2
									{
										OFFSET 3.671181 0.000000 0.000000
										CHANNELS 3 Xrotation Yrotation Zrotation
										JOINT LeftHandRing3
										{
											OFFSET 2.728851 0.000000 0.000000
											CHANNELS 3 Xrotation Yrotation Zrotation
											End Site
											{
												OFFSET -0.815796 2.539223 0.577389
											}
										}
									}
								}
								JOINT LeftHandPinky1
								{
									OFFSET 7.854515 -0.675232 -5.213020
									CHANNELS 3 Xrotation Yrotation Zrotation
									JOINT LeftHandPinky2
									{
										OFFSET 3.068596 0.000000 0.000000
										CHANNELS 3 Xrotation Yrotation Zrotation
										JOINT LeftHandPinky3
										{
											OFFSET 2.396042 0.000000 0.000000
											CHANNELS 3 Xrotation Yrotation Zrotation
											End Site
											{
												OFFSET -0.524597 2.267998 0.567429
											}
										}
									}
								}
							}
							JOINT LeftSleeve
							{
								OFFSET 19.684509 -0.200119 0.476146
								CHANNELS 3 Xrotation Yrotation Zrotation
								End Site
								{
									OFFSET -0.031017 25.731133 -0.002868
								}
							}
						}
					}
				}
				JOINT RightShoulder
				{
					OFFSET -4.395900 7.341202 -1.870200
					CHANNELS 3 Xrotation Yrotation Zrotation
					JOINT RightArm
					{
						OFFSET -8.071453 0.936867 -2.181100
						CHANNELS 3 Xrotation Yrotation Zrotation
						JOINT RightForeArm
						{
							OFFSET -31.272011 0.000000 0.000000
							CHANNELS 3 Xrotation Yrotation Zrotation
							JOINT RightHand
							{
								OFFSET -31.771019 0.000000 0.000000
								CHANNELS 3 Xrotation Yrotation Zrotation
								JOINT RightHandThumb1
								{
									OFFSET -2.886520 -2.557808 4.416626
									CHANNELS 3 Xrotation Yrotation Zrotation
									JOINT RightHandThumb2
									{
										OFFSET -2.371056 -1.368927 1.368928
										CHANNELS 3 Xrotation Yrotation Zrotation
										JOINT RightHandThumb3
										{
											OFFSET -2.243362 -1.295204 1.295206
											CHANNELS 3 Xrotation Yrotation Zrotation
											End Site
											{
												OFFSET 0.332642 2.876938 0.020047
											}
										}
									}
								}
								JOINT RightHandIndex1
								{
									OFFSET -8.568993 -0.641953 3.120017
									CHANNELS 3 Xrotation Yrotation Zrotation
									JOINT RightHandIndex2
									{
										OFFSET -3.348518 0.000000 0.000000
										CHANNELS 3 Xrotation Yrotation Zrotation
										JOINT RightHandIndex3
										{
											OFFSET -3.314552 0.000000 0.000000
											CHANNELS 3 Xrotation Yrotation Zrotation
											End Site
											{
												OFFSET 1.032898 3.075478 0.678804
											}
										}
									}
								}
								JOINT RightHandMiddle1
								{
									OFFSET -8.124588 0.000000 0.000000
									CHANNELS 3 Xrotation Yrotation Zrotation
									JOINT RightHandMiddle2
									{
										OFFSET -4.166275 0.000000 0.000000
										CHANNELS 3 Xrotation Yrotation Zrotation
										JOINT RightHandMiddle3
										{
											OFFSET -3.018097 0.000000 0.000000
											CHANNELS 3 Xrotation Yrotation Zrotation
											End Site
											{
												OFFSET 1.032700 2.767937 0.617197
											}
										}
									}
								}
								JOINT RightHandRing1
								{
									OFFSET -8.571747 -0.031349 -2.884061
									CHANNELS 3 Xrotation Yrotation Zrotation
									JOINT RightHandRing2
									{
										OFFSET -3.671204 0.000000 0.000000
										CHANNELS 3 Xrotation Yrotation Zrotation
										JOINT RightHandRing3
										{
											OFFSET -2.728874 0.000000 0.000000
											CHANNELS 3 Xrotation Yrotation Zrotation
											End Site
											{
												OFFSET 0.815804 2.539261 0.577413
											}
										}
									}
								}
								JOINT RightHandPinky1
								{
									OFFSET -7.854561 -0.675247 -5.212970
									CHANNELS 3 Xrotation Yrotation Zrotation
									JOINT RightHandPinky2
									{
										OFFSET -3.068550 0.000000 0.000000
										CHANNELS 3 Xrotation Yrotation Zrotation
										JOINT RightHandPinky3
										{
											OFFSET -2.395981 0.000000 0.000000
											CHANNELS 3 Xrotation Yrotation Zrotation
											End Site
											{
												OFFSET 0.524605 2.267952 0.567413
											}
										}
									}
								}
							}
							JOINT RightSleeve
							{
								OFFSET -19.684753 -0.200165 0.476065
								CHANNELS 3 Xrotation Yrotation Zrotation
								End Site
								{
									OFFSET 0.031342 25.731255 -0.002917
								}
							}
						}
					}
				}
				JOINT Hood
				{
					OFFSET 0.369700 14.447800 -5.317800
					CHANNELS 3 Xrotation Yrotation Zrotation
					JOINT Hood1
					{
						OFFSET 0.001700 -5.553802 -5.895100
						CHANNELS 3 Xrotation Yrotation Zrotation
						JOINT Hood2
						{
							OFFSET -0.000200 -8.380501 0.763600
							CHANNELS 3 Xrotation Yrotation Zrotation
							End Site
							{
								OFFSET 0.000000 8.415215 0.000000
							}
						}
					}
				}
				JOINT Left_Breast
				{
					OFFSET 5.682500 3.120102 3.188800
					CHANNELS 3 Xrotation Yrotation Zrotation
					End Site
					{
						OFFSET 0.000000 10.528564 0.000000
					}
				}
				JOINT Right_Breast
				{
					OFFSET -4.947600 3.120102 3.185900
					CHANNELS 3 Xrotation Yrotation Zrotation
					End Site
					{
						OFFSET 0.000000 10.528564 0.000000
					}
				}
				JOINT Whistle
				{
					OFFSET 0.368200 11.471298 0.095400
					CHANNELS 3 Xrotation Yrotation Zrotation
					JOINT Whistle1
					{
						OFFSET -0.002000 -6.349899 7.479800
						CHANNELS 3 Xrotation Yrotation Zrotation
						JOINT Whistle2
						{
							OFFSET -0.001300 -8.217598 4.717600
							CHANNELS 3 Xrotation Yrotation Zrotation
							End Site
							{
								OFFSET 0.000000 9.475479 0.000000
							}
						}
					}
				}
			}
		}
		JOINT Belly
		{
			OFFSET 0.212400 1.593002 3.163700
			CHANNELS 3 Xrotation Yrotation Zrotation
			End Site
			{
				OFFSET 0.000000 7.496635 0.000000
			}
		}
	}
	JOINT FitGrandmaFacialAnim_Joint
	{
		OFFSET 1.150000 -86.211197 -1.220100
		CHANNELS 3 Xrotation Yrotation Zrotation
		End Site
		{
			OFFSET 0.000000 31.666618 0.000000
		}
	}
}
MOTION
Frames: 4
Frame Time: 0.016667
0.049409 68.879799 3.918949 17.912284 7.021221 2.403726 -0.000001 0.000000 0.000000 -60.748788 -4.650290 16.847008 57.008034 -10.995202 5.209583 -14.511857 2.816182 -22.265011 -0.000000 -0.000000 -0.000000 -0.000000 0.000000 0.000001 -0.000002 0.000001 0.000000 -67.160519 -2.422458 -32.854941 59.939739 3.042275 -10.209576 -17.581634 15.665515 25.701985 0.000000 -0.000000 -0.000000 0.000001 0.000002 0.000001 0.000002 0.000001 0.000000 24.909399 -1.921661 -0.688822 9.984202 -0.279445 0.369387 9.985413 -0.248853 0.340489 -13.716349 0.013825 0.930261 -37.498722 2.736716 -4.332477 -0.000000 0.000000 -0.000000 -0.000000 0.000000 -0.000000 -0.000000 0.000000 -0.000000 -0.000000 0.000000 -0.000000 -0.000000 0.000000 -0.000000 -0.000000 0.000000 -0.000000 -0.000000 0.000000 -0.000000 -0.000000 0.000000 -0.000000 -0.000000 0.000000 -0.000000 -0.000000 0.000000 -0.000000 -0.000000 0.000000 -0.000000 -0.000000 0.000000 -0.000000 -0.000000 0.000000 -0.000000 -0.000000 0.000000 -0.000000 -0.000000 0.000000 -0.000000 -0.000000 0.000000 -0.000000 -0.000000 0.000000 -0.000000 -0.000000 0.000000 -0.000000 -0.000000 0.000000 -0.000000 1.478045 2.484403 6.153246 -39.636472 40.459490 -27.578940 0.000007 -121.968136 0.000011 9.513714 3.436575 21.973388 -1.665937 10.475381 7.161648 4.500558 14.758256 1.259414 0.000001 0.000001 0.000001 0.045729 0.793867 -6.593242 0.229623 1.766735 -14.808825 0.000002 -0.000000 0.000000 0.108339 1.219107 -10.156661 0.367797 2.224367 -18.775393 0.000000 0.000000 -0.000004 0.274313 1.927800 -16.195325 0.695111 3.019735 -25.920949 -0.000001 -0.000002 -0.000002 1.314026 5.750522 -14.980799 0.615461 -1.223849 -24.699849 -0.000001 -0.000001 -0.000001 -0.000000 0.000000 -0.000001 0.699821 1.664549 -0.959362 -37.611417 -48.785166 23.551153 0.000002 116.191381 -0.000010 -14.214361 -0.905264 -11.008359 -2.014195 -11.528559 -7.837542 5.353887 -16.615581 -0.772917 0.000001 -0.000000 0.000002 0.139480 -1.388493 11.472133 0.376101 -2.259988 18.894646 0.000001 -0.000001 0.000001 0.366106 -2.230585 18.639569 0.755788 -3.157567 26.915346 0.000000 0.000001 0.000001 0.823289 -3.286983 28.116112 0.315463 -2.074448 17.290914 0.000001 -0.000001 0.000004 1.093616 -3.748383 32.519774 0.002129 0.172494 0.000007 -0.000002 -0.000002 0.000000 -0.000000 -0.000002 0.000001 0.000002 0.000000 -0.000000 0.000002 0.000000 -0.000000 0.000002 0.000000 -0.000000 0.000002 0.000000 -0.000000 0.000002 0.000000 -0.000000 0.000002 0.000000 -0.000000 0.000002 -0.000000 0.000000 0.000002 -0.000000 0.000000 -0.000001 -0.000000 0.000000 -0.000001 0.000000 0.000000 
0.030028 68.880447 3.941999 17.964236 6.994095 2.409094 -0.000001 -0.000000 0.000000 -60.724487 -4.739812 16.920638 56.959519 -11.000756 5.073035 -14.505418 2.895482 -22.255003 -0.000000 -0.000000 -0.000000 -0.000001 0.000001 0.000004 0.000002 -0.000001 0.000002 -67.267617 -2.476420 -32.863944 59.969983 3.055803 -10.209315 -17.594871 15.733592 25.649947 0.000000 -0.000000 0.000000 0.000001 0.000000 0.000000 0.000002 -0.000001 0.000001 24.706889 -1.895711 -0.705619 9.997890 -0.276383 0.351718 9.999189 -0.246522 0.322896 -13.721340 0.004402 1.016489 -37.443462 2.765130 -4.315586 0.000001 -0.000000 -0.000000 0.000001 -0.000000 -0.000000 0.000001 -0.000000 -0.000000 0.000001 -0.000000 -0.000000 0.000001 -0.000000 -0.000000 0.000001 -0.000000 -0.000000 0.000001 -0.000000 -0.000000 0.000001 -0.000000 -0.000000 0.000001 -0.000000 -0.000000 0.000001 -0.000000 -0.000000 0.000001 -0.000000 -0.000000 0.000001 -0.000000 -0.000000 0.000001 -0.000000 -0.000000 0.000001 -0.000000 -0.000000 0.000001 -0.000000 -0.000000 0.000001 -0.000000 -0.000000 0.000001 -0.000000 -0.000000 0.000001 -0.000000 -0.000000 0.000001 -0.000000 -0.000000 1.321078 2.483087 6.025032 -40.078792 39.881942 -27.232980 -0.000003 -121.655887 0.000007 9.639114 3.386267 21.960506 -1.665940 10.475372 7.161659 4.500561 14.758258 1.259412 0.000000 -0.000001 -0.000003 0.046013 0.796335 -6.613682 0.229928 1.767898 -14.819058 0.000002 -0.000001 0.000000 0.108696 1.221088 -10.173274 0.368244 2.225660 -18.786831 0.000000 -0.000002 -0.000001 0.274872 1.929728 -16.211951 0.695724 3.021010 -25.932403 0.000000 0.000000 -0.000002 1.316086 5.752519 -15.001397 0.615534 -1.223690 -24.701190 -0.000002 0.000002 -0.000001 -0.000001 0.000000 -0.000000 0.703202 1.639445 -1.191852 -37.966146 -48.123409 23.212338 0.000033 115.923610 -0.000032 -14.061641 -1.072663 -10.305525 -2.014200 -11.528563 -7.837545 5.353889 -16.615586 -0.772916 -0.000000 0.000004 -0.000000 0.157331 -1.473687 12.186933 0.390334 -2.301109 19.252399 -0.000001 -0.000002 -0.000001 0.393446 -2.310002 19.329891 0.777213 -3.199398 27.301967 -0.000002 0.000000 0.000001 0.863382 -3.360825 28.807658 0.329563 -2.119235 17.676813 -0.000001 0.000001 0.000001 1.105336 -3.766679 32.698680 0.001209 0.129881 0.000032 0.000001 0.000001 -0.000003 0.000000 -0.000002 -0.000002 -0.000001 0.000000 0.000000 -0.000001 0.000000 0.000000 -0.000001 0.000000 0.000000 -0.000001 0.000000 0.000000 -0.000001 0.000000 0.000000 -0.000001 0.000000 -0.000000 0.000001 -0.000000 0.000000 0.000001 -0.000000 0.000000 -0.000002 0.000000 0.000000 -0.000001 -0.000000 0.000000 
0.007838 68.882347 3.961813 17.979850 6.948050 2.414383 0.000000 0.000000 -0.000000 -60.639082 -4.916101 17.033047 56.910840 -11.024660 4.838342 -14.505607 3.029564 -22.222352 0.000000 -0.000000 0.000000 0.000000 -0.000000 -0.000001 0.000003 0.000000 -0.000000 -67.373088 -2.570867 -32.886039 59.998916 3.069178 -10.209048 -17.606160 15.869072 25.582911 -0.000000 0.000000 -0.000000 0.000002 0.000001 -0.000001 -0.000004 0.000000 0.000001 24.561198 -1.876372 -0.726454 10.014803 -0.274081 0.342067 10.016155 -0.244465 0.313224 -13.718617 -0.000161 1.064427 -37.414765 2.773708 -4.291586 -0.000000 0.000000 0.000000 -0.000000 0.000000 0.000000 -0.000000 0.000000 0.000000 -0.000000 0.000000 0.000000 -0.000000 0.000000 0.000000 -0.000000 0.000000 0.000000 -0.000000 0.000000 0.000000 -0.000000 0.000000 0.000000 -0.000000 0.000000 0.000000 -0.000000 0.000000 0.000000 -0.000000 0.000000 0.000000 -0.000000 0.000000 0.000000 -0.000000 0.000000 0.000000 -0.000000 0.000000 0.000000 -0.000000 0.000000 0.000000 -0.000000 0.000000 0.000000 -0.000000 0.000000 0.000000 -0.000000 0.000000 0.000000 -0.000000 0.000000 0.000000 1.205997 2.481978 5.929829 -40.394565 39.462688 -26.976298 0.000016 -121.413347 0.000030 9.736503 3.341904 21.924885 -1.665940 10.475363 7.161645 4.500558 14.758256 1.259413 -0.000001 0.000001 -0.000002 0.046278 0.798601 -6.632903 0.230223 1.769050 -14.828675 0.000001 -0.000000 -0.000001 0.109028 1.222955 -10.188900 0.368662 2.226887 -18.797579 0.000000 -0.000001 -0.000002 0.275392 1.931534 -16.227582 0.696283 3.022127 -25.943154 0.000000 0.000001 0.000000 1.318024 5.754388 -15.020762 0.615601 -1.223539 -24.702458 -0.000001 -0.000001 -0.000003 0.000001 -0.000000 0.000000 0.703016 1.622474 -1.343906 -38.348845 -47.702895 22.861543 -0.000014 115.756803 0.000014 -13.983834 -1.244662 -9.571270 -2.014199 -11.528548 -7.837546 5.353893 -16.615576 -0.772917 0.000000 0.000002 0.000000 0.174462 -1.550852 12.836014 0.403477 -2.338381 19.577247 0.000001 -0.000000 -0.000000 0.419106 -2.381805 19.956773 0.796935 -3.237268 27.653027 0.000000 0.000001 0.000001 0.900571 -3.427444 29.435687 0.342664 -2.159861 18.027463 -0.000003 0.000001 0.000001 1.116032 -3.783258 32.861126 0.000752 0.102293 0.000009 -0.000001 -0.000001 -0.000001 -0.000000 -0.000002 0.000000 -0.000000 0.000000 -0.000001 -0.000000 0.000000 -0.000001 -0.000000 0.000000 -0.000001 -0.000000 0.000000 -0.000001 -0.000000 0.000000 -0.000001 -0.000000 0.000000 -0.000000 -0.000002 0.000000 -0.000000 -0.000002 0.000000 -0.000000 0.000003 -0.000000 -0.000000 0.000000 0.000000 -0.000000 
-0.014974 68.886421 3.979553 17.961082 6.890421 2.426976 -0.000002 -0.000000 -0.000000 -60.501884 -5.136797 17.160811 56.861339 -11.054097 4.550205 -14.513592 3.190943 -22.177187 -0.000000 0.000000 -0.000000 0.000001 -0.000000 -0.000000 -0.000001 -0.000001 0.000003 -67.474216 -2.695697 -32.930558 60.026346 3.083107 -10.208810 -17.615208 16.060766 25.505207 0.000000 -0.000000 0.000000 -0.000001 0.000002 -0.000000 -0.000003 0.000001 -0.000004 24.462999 -1.861921 -0.750249 10.032792 -0.272356 0.338336 10.034206 -0.242614 0.309406 -13.707710 -0.001611 1.084483 -37.405739 2.766639 -4.264625 0.000000 -0.000000 -0.000000 0.000000 -0.000000 -0.000000 0.000000 -0.000000 -0.000000 0.000000 -0.000000 -0.000000 0.000000 -0.000000 -0.000000 0.000000 -0.000000 -0.000000 0.000000 -0.000000 -0.000000 0.000000 -0.000000 -0.000000 0.000000 -0.000000 -0.000000 0.000000 -0.000000 -0.000000 0.000000 -0.000000 -0.000000 0.000000 -0.000000 -0.000000 0.000000 -0.000000 -0.000000 0.000000 -0.000000 -0.000000 0.000000 -0.000000 -0.000000 0.000000 -0.000000 -0.000000 0.000000 -0.000000 -0.000000 0.000000 -0.000000 -0.000000 0.000000 -0.000000 -0.000000 1.120026 2.479357 5.855969 -40.606417 39.152673 -26.788962 0.000031 -121.224656 0.000051 9.790468 3.295981 21.868594 -1.665936 10.475371 7.161650 4.500561 14.758260 1.259411 0.000002 -0.000003 0.000002 0.046544 0.800890 -6.651721 0.230520 1.770130 -14.838087 0.000003 -0.000002 0.000000 0.109360 1.224789 -10.204191 0.369066 2.228069 -18.808111 0.000001 0.000000 -0.000002 0.275911 1.933315 -16.242881 0.696850 3.023298 -25.953693 0.000001 -0.000001 -0.000002 1.319929 5.756241 -15.039715 0.615659 -1.223414 -24.703695 -0.000003 -0.000002 0.000002 -0.000001 -0.000001 0.000001 0.700281 1.611309 -1.439466 -38.749306 -47.457319 22.501747 0.000034 115.670114 -0.000039 -13.983098 -1.405765 -8.888043 -2.014198 -11.528547 -7.837538 5.353888 -16.615579 -0.772919 -0.000001 0.000001 0.000001 0.190419 -1.619278 13.412957 0.415347 -2.371425 19.865988 -0.000000 -0.000001 -0.000002 0.442572 -2.445421 20.513997 0.814652 -3.270773 27.965083 -0.000000 -0.000002 0.000004 0.934223 -3.486316 29.993963 0.354510 -2.195885 18.339113 0.000003 -0.000003 0.000004 1.125565 -3.797943 33.005537 0.000941 0.114604 0.000010 0.000001 0.000001 -0.000003 -0.000002 0.000001 0.000000 0.000001 0.000000 -0.000000 0.000001 0.000000 -0.000000 0.000001 0.000000 -0.000000 0.000001 0.000000 -0.000000 0.000001 0.000000 -0.000000 0.000001 0.000000 -0.000000 -0.000001 0.000000 0.000000 -0.000001 0.000000 0.000000 0.000003 0.000001 -0.000000 -0.000002 -0.000000 -0.000000 
